<?xml version="1.0" standalone="no"?>
<!DOCTYPE svg PUBLIC "-//W3C//DTD SVG 20010904//EN"
 "http://www.w3.org/TR/2001/REC-SVG-20010904/DTD/svg10.dtd">
<svg version="1.0" xmlns="http://www.w3.org/2000/svg"
 width="512.000000pt" height="512.000000pt" viewBox="0 0 512.000000 512.000000"
 preserveAspectRatio="xMidYMid meet">
<metadata>
Created by potrace 1.14, written by Peter Selinger 2001-2017
</metadata>
<g transform="translate(0.000000,512.000000) scale(0.100000,-0.100000)"
fill="#000000" stroke="none">
<path d="M0 2560 l0 -2560 2560 0 2560 0 0 2560 0 2560 -2560 0 -2560 0 0
-2560z m4901 2342 c3 -1 5 -1056 5 -2344 l-1 -2343 -2346 -1 -2345 0 1 2345
c1 1291 3 2346 3 2347 4 1 4678 -3 4683 -4z"/>
<path d="M2551 4269 c-48 -10 -73 -39 -165 -192 -113 -190 -366 -610 -394
-655 -72 -116 -82 -170 -44 -222 39 -53 112 -63 165 -24 19 15 123 181 267
428 125 214 186 315 190 315 3 1 103 -164 223 -365 224 -375 246 -404 305
-404 12 0 38 6 56 14 39 16 77 84 70 124 -3 15 -46 94 -96 177 -50 82 -98 164
-108 180 -9 17 -51 86 -92 155 -42 69 -86 143 -99 165 -150 257 -172 287 -218
303 -14 5 -41 5 -60 1z"/>
<path d="M1612 2980 c-42 -26 -62 -59 -62 -103 0 -58 25 -92 89 -121 31 -13
200 -81 376 -151 176 -70 340 -136 364 -147 24 -11 51 -21 60 -23 15 -3 51
-18 126 -50 177 -76 872 -345 893 -345 39 0 73 20 98 57 27 41 19 113 -17 147
-26 25 -1811 742 -1866 749 -19 3 -42 -2 -61 -13z"/>
<path d="M2003 1859 c-56 -16 -91 -92 -71 -152 10 -27 454 -771 529 -886 43
-66 67 -77 146 -72 25 1 71 45 93 88 8 15 26 46 40 68 44 71 49 79 70 115 11
19 30 52 42 72 13 20 55 90 93 154 39 64 80 133 92 153 13 20 26 42 30 50 3 8
36 62 71 120 85 139 94 160 82 203 -19 68 -91 107 -158 85 -33 -11 -78 -59
-100 -108 -4 -8 -72 -124 -152 -257 -80 -133 -149 -250 -155 -260 -28 -51 -80
-132 -85 -132 -3 0 -88 141 -189 313 -234 395 -245 413 -273 430 -33 21 -68
26 -105 16z"/>
</g>
</svg>
