<svg width="261" height="96" viewBox="0 0 261 96" fill="none" xmlns="http://www.w3.org/2000/svg">
<rect x="2" y="2" width="257" height="92" stroke="white" stroke-width="4"/>
<path d="M51.0139 43C50.5072 43 50.0806 42.8667 49.7339 42.6C49.4139 42.3067 49.2539 41.92 49.2539 41.44V13.32C49.2539 12.8667 49.4006 12.4933 49.6939 12.2C49.9872 11.9067 50.3606 11.76 50.8139 11.76H60.5339C62.1339 11.76 63.5739 12.1067 64.8539 12.8C66.1606 13.4667 67.1872 14.3867 67.9339 15.56C68.7072 16.7333 69.0939 18.0933 69.0939 19.64C69.0939 21.08 68.7072 22.36 67.9339 23.48C67.1606 24.6 66.1472 25.4533 64.8939 26.04C66.6806 26.52 68.1206 27.4267 69.2139 28.76C70.3072 30.0667 70.8539 31.7333 70.8539 33.76C70.8539 35.5733 70.4406 37.1733 69.6139 38.56C68.7872 39.9467 67.6406 41.04 66.1739 41.84C64.7339 42.6133 63.0806 43 61.2139 43H51.0139ZM52.3739 24.8H60.5339C62.1339 24.8 63.4539 24.3467 64.4939 23.44C65.5339 22.5333 66.0539 21.2667 66.0539 19.64C66.0539 18.04 65.5339 16.8267 64.4939 16C63.4539 15.1733 62.1339 14.76 60.5339 14.76H52.3739V24.8ZM52.3739 40H61.2139C63.1339 40 64.7072 39.44 65.9339 38.32C67.1606 37.2 67.7739 35.68 67.7739 33.76C67.7739 31.9467 67.1606 30.5067 65.9339 29.44C64.7072 28.3467 63.1339 27.8 61.2139 27.8H52.3739V40ZM78.6264 43C78.1731 43 77.7997 42.8533 77.5064 42.56C77.2131 42.2667 77.0664 41.8933 77.0664 41.44V13.32C77.0664 12.8667 77.2131 12.4933 77.5064 12.2C77.7997 11.9067 78.1731 11.76 78.6264 11.76C79.0797 11.76 79.4531 11.9067 79.7464 12.2C80.0397 12.4933 80.1864 12.8667 80.1864 13.32V25.8H99.7064V13.32C99.7064 12.8667 99.8531 12.4933 100.146 12.2C100.44 11.9067 100.813 11.76 101.266 11.76C101.72 11.76 102.093 11.9067 102.386 12.2C102.68 12.4933 102.826 12.8667 102.826 13.32V41.44C102.826 41.8933 102.68 42.2667 102.386 42.56C102.093 42.8533 101.72 43 101.266 43C100.813 43 100.44 42.8533 100.146 42.56C99.8531 42.2667 99.7064 41.8933 99.7064 41.44V28.6H80.1864V41.44C80.1864 41.8933 80.0397 42.2667 79.7464 42.56C79.4531 42.8533 79.0797 43 78.6264 43ZM112.376 43C111.923 43 111.55 42.8533 111.256 42.56C110.963 42.2667 110.816 41.8933 110.816 41.44V13.32C110.816 12.8667 110.963 12.4933 111.256 12.2C111.55 11.9067 111.923 11.76 112.376 11.76C112.83 11.76 113.203 11.9067 113.496 12.2C113.79 12.4933 113.936 12.8667 113.936 13.32V41.44C113.936 41.8933 113.79 42.2667 113.496 42.56C113.203 42.8533 112.83 43 112.376 43ZM123.509 43C123.056 43 122.683 42.8533 122.389 42.56C122.096 42.2667 121.949 41.8933 121.949 41.44V13.32C121.949 12.8667 122.096 12.4933 122.389 12.2C122.683 11.9067 123.056 11.76 123.509 11.76C123.989 11.76 124.389 11.9467 124.709 12.32L143.829 37.44V13.32C143.829 12.8667 143.976 12.4933 144.269 12.2C144.563 11.9067 144.936 11.76 145.389 11.76C145.816 11.76 146.176 11.9067 146.469 12.2C146.789 12.4933 146.949 12.8667 146.949 13.32V41.44C146.949 41.8933 146.789 42.2667 146.469 42.56C146.176 42.8533 145.816 43 145.389 43C144.883 43 144.496 42.8267 144.229 42.48L125.069 17.36V41.44C125.069 41.8933 124.909 42.2667 124.589 42.56C124.296 42.8533 123.936 43 123.509 43ZM153.237 43C152.624 43 152.184 42.7467 151.917 42.24C151.65 41.7333 151.624 41.24 151.837 40.76L163.597 12.84C163.89 12.12 164.397 11.76 165.117 11.76C165.81 11.76 166.304 12.12 166.597 12.84L178.397 40.8C178.637 41.3067 178.597 41.8 178.277 42.28C177.984 42.76 177.557 43 176.997 43C176.277 43 175.784 42.68 175.517 42.04L172.877 35.56H157.357L154.677 42.04C154.544 42.36 154.344 42.6 154.077 42.76C153.837 42.92 153.557 43 153.237 43ZM158.477 32.88H171.757L165.117 16.84L158.477 32.88ZM184.642 43C184.189 43 183.815 42.8533 183.522 42.56C183.229 42.2667 183.082 41.8933 183.082 41.44V13.32C183.082 12.8667 183.229 12.4933 183.522 12.2C183.815 11.9067 184.189 11.76 184.642 11.76C185.122 11.76 185.522 11.9467 185.842 12.32L204.962 37.44V13.32C204.962 12.8667 205.109 12.4933 205.402 12.2C205.695 11.9067 206.069 11.76 206.522 11.76C206.949 11.76 207.309 11.9067 207.602 12.2C207.922 12.4933 208.082 12.8667 208.082 13.32V41.44C208.082 41.8933 207.922 42.2667 207.602 42.56C207.309 42.8533 206.949 43 206.522 43C206.015 43 205.629 42.8267 205.362 42.48L186.202 17.36V41.44C186.202 41.8933 186.042 42.2667 185.722 42.56C185.429 42.8533 185.069 43 184.642 43ZM217.65 43C217.197 43 216.823 42.8533 216.53 42.56C216.237 42.2667 216.09 41.8933 216.09 41.44V13.32C216.09 12.8667 216.237 12.4933 216.53 12.2C216.823 11.9067 217.197 11.76 217.65 11.76H224.85C227.143 11.76 229.237 12.1467 231.13 12.92C233.05 13.6667 234.703 14.7467 236.09 16.16C237.477 17.5467 238.543 19.1867 239.29 21.08C240.063 22.9733 240.45 25.0667 240.45 27.36C240.45 29.6533 240.063 31.76 239.29 33.68C238.543 35.5733 237.477 37.2267 236.09 38.64C234.703 40.0267 233.05 41.1067 231.13 41.88C229.237 42.6267 227.143 43 224.85 43H217.65ZM219.21 40.2H224.85C227.303 40.2 229.463 39.6533 231.33 38.56C233.223 37.44 234.703 35.92 235.77 34C236.837 32.0533 237.37 29.84 237.37 27.36C237.37 24.88 236.837 22.68 235.77 20.76C234.703 18.8133 233.223 17.2933 231.33 16.2C229.463 15.1067 227.303 14.56 224.85 14.56H219.21V40.2Z" fill="white"/>
<path d="M47.9831 79C47.3698 79 46.9298 78.7467 46.6631 78.24C46.3965 77.7333 46.3698 77.24 46.5831 76.76L58.3431 48.84C58.6365 48.12 59.1431 47.76 59.8631 47.76C60.5565 47.76 61.0498 48.12 61.3431 48.84L73.1431 76.8C73.3831 77.3067 73.3431 77.8 73.0231 78.28C72.7298 78.76 72.3031 79 71.7431 79C71.0231 79 70.5298 78.68 70.2631 78.04L67.6231 71.56H52.1031L49.4231 78.04C49.2898 78.36 49.0898 78.6 48.8231 78.76C48.5831 78.92 48.3031 79 47.9831 79ZM53.2231 68.88H66.5031L59.8631 52.84L53.2231 68.88ZM79.3881 79C78.9615 79 78.5881 78.8533 78.2681 78.56C77.9748 78.2667 77.8281 77.8933 77.8281 77.44V49.32C77.8281 48.8933 77.9748 48.5333 78.2681 48.24C78.5881 47.92 78.9615 47.76 79.3881 47.76C79.8148 47.76 80.1748 47.92 80.4681 48.24C80.7881 48.5333 80.9481 48.8933 80.9481 49.32V76.04H96.5881C97.0148 76.04 97.3748 76.1867 97.6681 76.48C97.9881 76.7467 98.1481 77.0933 98.1481 77.52C98.1481 77.9467 97.9881 78.3067 97.6681 78.6C97.3748 78.8667 97.0148 79 96.5881 79H79.3881ZM101.421 79C100.807 79 100.367 78.7467 100.101 78.24C99.834 77.7333 99.8073 77.24 100.021 76.76L111.781 48.84C112.074 48.12 112.581 47.76 113.301 47.76C113.994 47.76 114.487 48.12 114.781 48.84L126.581 76.8C126.821 77.3067 126.781 77.8 126.461 78.28C126.167 78.76 125.741 79 125.181 79C124.461 79 123.967 78.68 123.701 78.04L121.061 71.56H105.541L102.861 78.04C102.727 78.36 102.527 78.6 102.261 78.76C102.021 78.92 101.741 79 101.421 79ZM106.661 68.88H119.941L113.301 52.84L106.661 68.88ZM140.866 79.4C138.306 79.4 136.039 78.8533 134.066 77.76C132.119 76.6667 130.732 75.2133 129.906 73.4C129.692 72.9733 129.679 72.5867 129.866 72.24C130.079 71.8667 130.426 71.6133 130.906 71.48C131.279 71.3733 131.639 71.4133 131.986 71.6C132.359 71.7867 132.639 72.0667 132.826 72.44C133.439 73.6133 134.452 74.5733 135.866 75.32C137.279 76.0667 138.946 76.44 140.866 76.44C142.972 76.44 144.706 75.9333 146.066 74.92C147.452 73.88 148.146 72.3867 148.146 70.44C148.146 68.8133 147.546 67.4133 146.346 66.24C145.146 65.0667 143.266 64.32 140.706 64C137.586 63.6267 135.146 62.6667 133.386 61.12C131.626 59.5467 130.746 57.6267 130.746 55.36C130.746 53.7333 131.172 52.32 132.026 51.12C132.906 49.92 134.106 49 135.626 48.36C137.146 47.6933 138.892 47.36 140.866 47.36C143.079 47.36 144.972 47.8667 146.546 48.88C148.119 49.8667 149.332 51.04 150.186 52.4C150.452 52.8267 150.532 53.24 150.426 53.64C150.346 54.04 150.119 54.3467 149.746 54.56C149.346 54.7467 148.932 54.7733 148.506 54.64C148.106 54.5067 147.799 54.2533 147.586 53.88C146.972 52.9467 146.132 52.1333 145.066 51.44C144.026 50.72 142.612 50.3467 140.826 50.32C138.719 50.32 137.026 50.7733 135.746 51.68C134.466 52.56 133.826 53.8533 133.826 55.56C133.826 56.92 134.372 58.1067 135.466 59.12C136.586 60.1333 138.559 60.84 141.386 61.24C144.719 61.72 147.186 62.7467 148.786 64.32C150.412 65.8667 151.226 67.8933 151.226 70.4C151.226 72.32 150.759 73.96 149.826 75.32C148.919 76.6533 147.679 77.6667 146.106 78.36C144.532 79.0533 142.786 79.4 140.866 79.4ZM167.35 79.4C164.79 79.4 162.523 78.8533 160.55 77.76C158.603 76.6667 157.217 75.2133 156.39 73.4C156.177 72.9733 156.163 72.5867 156.35 72.24C156.563 71.8667 156.91 71.6133 157.39 71.48C157.763 71.3733 158.123 71.4133 158.47 71.6C158.843 71.7867 159.123 72.0667 159.31 72.44C159.923 73.6133 160.937 74.5733 162.35 75.32C163.763 76.0667 165.43 76.44 167.35 76.44C169.457 76.44 171.19 75.9333 172.55 74.92C173.937 73.88 174.63 72.3867 174.63 70.44C174.63 68.8133 174.03 67.4133 172.83 66.24C171.63 65.0667 169.75 64.32 167.19 64C164.07 63.6267 161.63 62.6667 159.87 61.12C158.11 59.5467 157.23 57.6267 157.23 55.36C157.23 53.7333 157.657 52.32 158.51 51.12C159.39 49.92 160.59 49 162.11 48.36C163.63 47.6933 165.377 47.36 167.35 47.36C169.563 47.36 171.457 47.8667 173.03 48.88C174.603 49.8667 175.817 51.04 176.67 52.4C176.937 52.8267 177.017 53.24 176.91 53.64C176.83 54.04 176.603 54.3467 176.23 54.56C175.83 54.7467 175.417 54.7733 174.99 54.64C174.59 54.5067 174.283 54.2533 174.07 53.88C173.457 52.9467 172.617 52.1333 171.55 51.44C170.51 50.72 169.097 50.3467 167.31 50.32C165.203 50.32 163.51 50.7733 162.23 51.68C160.95 52.56 160.31 53.8533 160.31 55.56C160.31 56.92 160.857 58.1067 161.95 59.12C163.07 60.1333 165.043 60.84 167.87 61.24C171.203 61.72 173.67 62.7467 175.27 64.32C176.897 65.8667 177.71 67.8933 177.71 70.4C177.71 72.32 177.243 73.96 176.31 75.32C175.403 76.6533 174.163 77.6667 172.59 78.36C171.017 79.0533 169.27 79.4 167.35 79.4ZM185.794 79C185.341 79 184.968 78.8533 184.674 78.56C184.381 78.2667 184.234 77.8933 184.234 77.44V49.32C184.234 48.8667 184.381 48.4933 184.674 48.2C184.968 47.9067 185.341 47.76 185.794 47.76H204.554C204.981 47.76 205.341 47.9067 205.634 48.2C205.954 48.4667 206.114 48.8267 206.114 49.28C206.114 49.68 205.954 50.0267 205.634 50.32C205.341 50.6133 204.981 50.76 204.554 50.76H187.354V61.8H199.874C200.328 61.8 200.701 61.9467 200.994 62.24C201.288 62.5333 201.434 62.8933 201.434 63.32C201.434 63.7467 201.288 64.1067 200.994 64.4C200.701 64.6933 200.328 64.84 199.874 64.84H187.354V76H204.554C204.981 76 205.341 76.1467 205.634 76.44C205.954 76.7333 206.114 77.08 206.114 77.48C206.114 77.9333 205.954 78.3067 205.634 78.6C205.341 78.8667 204.981 79 204.554 79H185.794ZM213.49 79C213.036 79 212.663 78.8533 212.37 78.56C212.076 78.2667 211.93 77.8933 211.93 77.44V49.32C211.93 48.8667 212.076 48.4933 212.37 48.2C212.663 47.9067 213.036 47.76 213.49 47.76H220.97C222.916 47.76 224.65 48.1733 226.17 49C227.69 49.8 228.876 50.9333 229.73 52.4C230.61 53.84 231.05 55.5067 231.05 57.4C231.05 59.48 230.49 61.2933 229.37 62.84C228.25 64.36 226.756 65.44 224.89 66.08L231.45 76.6C231.85 77.24 231.916 77.8 231.65 78.28C231.41 78.76 230.93 79 230.21 79C229.863 79 229.583 78.9333 229.37 78.8C229.183 78.6667 229.01 78.4667 228.85 78.2L221.65 66.72C221.436 66.7467 221.21 66.76 220.97 66.76H215.05V77.44C215.05 77.8933 214.903 78.2667 214.61 78.56C214.316 78.8533 213.943 79 213.49 79ZM215.05 63.76H220.97C222.33 63.76 223.53 63.4933 224.57 62.96C225.636 62.4 226.476 61.64 227.09 60.68C227.703 59.72 228.01 58.6267 228.01 57.4C228.01 56.0933 227.703 54.9467 227.09 53.96C226.476 52.9467 225.636 52.16 224.57 51.6C223.53 51.04 222.33 50.76 220.97 50.76H215.05V63.76ZM238.216 79C237.763 79 237.39 78.8533 237.096 78.56C236.803 78.2667 236.656 77.8933 236.656 77.44V49.32C236.656 48.8667 236.803 48.4933 237.096 48.2C237.39 47.9067 237.763 47.76 238.216 47.76C238.67 47.76 239.043 47.9067 239.336 48.2C239.63 48.4933 239.776 48.8667 239.776 49.32V77.44C239.776 77.8933 239.63 78.2667 239.336 78.56C239.043 78.8533 238.67 79 238.216 79Z" fill="white"/>
<path d="M43.436 60.779L33.712 77.015C33.2133 77.807 32.5387 78.203 31.688 78.203C30.9253 78.203 30.2653 77.807 29.708 77.015L19.94 60.779C19.5293 59.987 19.5293 59.2243 19.94 58.491C20.3213 57.7577 20.9373 57.391 21.788 57.391C22.668 57.391 23.328 57.7577 23.768 58.491L31.644 71.735L39.564 58.491C40.0333 57.7577 40.6787 57.391 41.5 57.391C42.0867 57.391 42.5853 57.5817 42.996 57.963C43.3773 58.315 43.6267 58.755 43.744 59.283C43.832 59.811 43.7293 60.3097 43.436 60.779ZM50.256 51.9405C50.256 52.7618 49.9187 53.3925 49.244 53.8325C48.5987 54.2432 47.88 54.2872 47.088 53.9645L13.956 40.7205C13.5453 40.5445 13.2227 40.2658 12.988 39.8845C12.7533 39.5032 12.636 39.0925 12.636 38.6525C12.636 37.8898 12.9587 37.2885 13.604 36.8485C14.22 36.3792 14.9533 36.3058 15.804 36.6285L48.936 49.8725C49.4053 50.0485 49.7427 50.3418 49.948 50.7525C50.1533 51.1338 50.256 51.5298 50.256 51.9405ZM43.436 30.1275C43.7293 30.5968 43.832 31.0955 43.744 31.6235C43.6267 32.1515 43.3773 32.6062 42.996 32.9875C42.5853 33.3395 42.0867 33.5155 41.5 33.5155C40.6787 33.5155 40.0333 33.1488 39.564 32.4155L31.644 19.1715L23.768 32.4155C23.328 33.1488 22.668 33.5155 21.788 33.5155C20.9373 33.5155 20.3213 33.1488 19.94 32.4155C19.5293 31.6822 19.5293 30.9195 19.94 30.1275L29.708 13.8915C30.2653 13.0995 30.9253 12.7035 31.688 12.7035C32.5387 12.7035 33.2133 13.0995 33.712 13.8915L43.436 30.1275Z" fill="white"/>
</svg>